<?xml version="1.0" encoding="utf-8"?>
<!-- Generator: Adobe Illustrator 21.1.0, SVG Export Plug-In . SVG Version: 6.00 Build 0)  -->
<svg version="1.0" id="Capa_1" xmlns="http://www.w3.org/2000/svg" xmlns:xlink="http://www.w3.org/1999/xlink" x="0px" y="0px"
	 viewBox="0 0 40 40" enable-background="new 0 0 40 40" xml:space="preserve">
<path fill="#FDFDFE" d="M20,36.3c-6.6,0-13.2,0-19.8,0c-0.2,0-0.2,0-0.2-0.2C0,24.9,0,13.8,0,2.6c0-0.2,0-0.2,0.2-0.2
	c13.2,0,26.4,0,39.6,0c0.2,0,0.2,0,0.2,0.2c0,11.1,0,22.3,0,33.4c0,0.2,0,0.2-0.2,0.2C33.2,36.3,26.6,36.3,20,36.3z M0.4,20.8
	L0.4,20.8c0,0.2,0,0.5,0,0.7s0,0.2,0.2,0.2c0.5-0.1,1.1-0.3,1.6-0.4c0.3-0.1,0.6-0.1,0.9-0.2c0.7-0.2,1.4-0.3,2.1-0.5
	c0.6-0.2,1.2-0.2,1.7-0.5C7,20,7.2,20,7.3,19.9c0.1,0,0.3,0,0.3,0.1c0.3,0.5,0.7,0.9,1.1,1.3c0.3,0.4,0.7,0.9,1,1.3
	c0.2,0.3,0.5,0.6,0.8,0.9c0.4,0.6,0.9,1.1,1.3,1.7c0.5,0.6,1,1.3,1.5,1.9s0.9,1.2,1.4,1.7c0.1,0.1,0.2,0.2,0.1,0.4
	c-0.2,0.7-0.4,1.4-0.6,2.2c-0.1,0.5-0.3,1.1-0.4,1.6c0,0.1,0,0.2,0.1,0.1c0.1,0,0.1,0,0.2,0c1.4-0.4,2.8-0.6,4.2-1
	c0.6-0.2,1.1-0.3,1.7-0.4c1-0.2,1.9-0.5,2.9-0.8c0.9-0.3,1.9-0.5,2.8-0.7c0.7-0.2,1.5-0.4,2.2-0.6c1.5-0.4,3.1-0.7,4.6-1.2
	c0.5-0.1,1-0.2,1.4-0.4c1.2-0.3,2.5-0.6,3.7-0.9c0.1,0,0.2-0.1,0.3-0.2c0.2-0.5,0.4-1,0.6-1.6c0.3-0.9,0.6-1.7,0.9-2.5
	c0.1-0.4,0.3-0.8,0.4-1.2c0-0.1,0-0.1,0-0.2h-0.1c-0.5,0.2-1,0.4-1.5,0.6c-0.4,0.2-0.8,0.4-1.2,0.6s-0.8,0.3-1.2,0.5
	c-0.6,0.2-1.2,0.4-1.7,0.7c-0.7,0.3-1.5,0.6-2.2,0.9c-0.2,0.1-0.5,0.2-0.7,0.3c-0.2,0.1-0.5,0.2-0.7,0.3c-0.5,0.2-1,0.4-1.5,0.6
	c-0.4,0.1-0.7,0.3-1.1,0.5c-0.9,0.4-1.8,0.6-2.7,1c-0.3,0.2-0.7,0.3-1,0.4s-0.7,0.3-1,0.4c-0.4,0.2-0.7,0.3-1.1,0.5
	c-0.5,0.2-1,0.4-1.4,0.6c-0.6,0.2-1.1,0.4-1.7,0.7c-0.2,0.1-0.3,0.1-0.4-0.1c-0.4-0.6-0.8-1.1-1.1-1.7c-0.3-0.5-0.6-1-1-1.4
	c-0.5-0.6-0.9-1.3-1.3-2c-0.2-0.3-0.4-0.6-0.6-0.9c-0.6-0.9-1.2-1.8-1.8-2.6c-0.4-0.5-0.7-1.1-1.1-1.6c-0.5-0.7-0.9-1.4-1.4-2
	c-0.4-0.6-0.8-1.2-1.2-1.8c-0.1-0.1-0.1-0.2,0-0.3c0.3-1,0.7-1.9,1-2.9c0-0.1,0-0.1,0-0.2c-0.1,0-0.1,0-0.2,0c-0.5,0.3-1,0.7-1.4,1
	c-0.6,0.4-1.1,0.7-1.7,1.1c-0.4,0.2-0.7,0.5-1.1,0.7c-0.7,0.5-1.4,0.9-2.1,1.4c-0.4,0.3-0.8,0.5-1.2,0.8c-0.5,0.3-0.9,0.7-1.4,0.9
	c-0.1,0.1-0.3,0.2-0.3,0.4C0.4,19.4,0.4,20.1,0.4,20.8z M35.5,9.7c0-0.2,0-0.3-0.2-0.2c-0.7,0.3-1.4,0.6-2.1,0.9
	c-0.8,0.3-1.6,0.6-2.3,0.9c-0.7,0.3-1.3,0.5-1.9,0.8c-0.5,0.2-1.1,0.4-1.6,0.6c-0.4,0.2-0.8,0.3-1.2,0.5c-0.7,0.3-1.4,0.5-2.1,0.8
	c-0.3,0.2-0.7,0.3-1,0.4c-0.4,0.1-0.7,0.3-1.1,0.4c-0.3,0.1-0.7,0.3-1,0.4c-0.4,0.2-0.8,0.3-1.2,0.5c-0.3,0.1-0.6,0.2-0.8,0.3
	c-0.3,0.2-0.7,0.3-1,0.5c-0.6,0.3-1.3,0.5-1.9,0.8c-0.4,0.1-0.7,0.3-1.1,0.5c-0.5,0.2-0.9,0.4-1.4,0.5c-0.1,0-0.1,0.1-0.1,0.2
	c0.1,0.1,0.2,0.3,0.3,0.5c0.4,0.6,0.8,1.1,1.2,1.7c0.5,0.7,1,1.3,1.5,2c0.6,0.8,1.3,1.7,1.9,2.5c0.3,0.4,0.6,0.8,0.9,1.2
	c0.2,0.2,0.3,0.4,0.5,0.6c0.1,0.1,0.1,0.1,0.2,0.1c0.7-0.3,1.4-0.5,2.1-0.8c0.4-0.2,0.9-0.4,1.3-0.5c0.2-0.1,0.4-0.2,0.4-0.5
	c0-0.1,0-0.2,0.1-0.3c0.3-0.9,0.5-1.8,0.8-2.8c0-0.1,0.1-0.2,0.2-0.3c0.4-0.2,0.8-0.3,1.2-0.5c0.5-0.2,1-0.4,1.5-0.6
	c0.2-0.1,0.3-0.2,0.6-0.1c0.5,0.3,1.1,0.5,1.6,0.8c0.3,0.2,0.7,0.4,1,0.5c0.4,0.2,0.7,0.4,1.2,0.1c0.8-0.4,1.7-0.7,2.5-1
	c0.1-0.1,0.2-0.1,0.2-0.3c0.1-1.1,0.2-2.1,0.3-3.2c0.1-1.2,0.2-2.4,0.3-3.5C35.2,12.6,35.3,11.1,35.5,9.7z M15,9.7L15,9.7
	c-0.3,0.1-0.6,0.1-1,0.1c-0.1,0-0.2,0-0.2,0.2c0.1,0.4,0.1,0.8,0.2,1.1c0.2,0.7,0.3,1.4,0.5,2.1c0.1,0.5,0.2,1,0.3,1.5
	c0.1,0.6,0.3,1.2,0.4,1.8c0,0.1,0.1,0.2,0.2,0.1c0.5-0.2,1-0.5,1.6-0.6c0.5-0.2,1-0.4,1.5-0.6c0.3-0.1,0.6-0.3,0.9-0.4
	c0.4-0.1,0.8-0.3,1.2-0.4c0.4-0.2,0.9-0.3,1.3-0.5c0.2-0.1,0.4-0.2,0.6-0.2c0.1,0,0.1-0.1,0.1-0.2c-0.3-1.2-0.6-2.5-0.9-3.7
	c0-0.1-0.1-0.2-0.2-0.2c-0.5,0-0.9,0-1.4,0c-0.6,0-1.2,0-1.9,0C17.2,9.7,16.1,9.7,15,9.7z M18.4,6.7C18.4,6.8,18.4,6.8,18.4,6.7
	c0.1,0.5,0.2,0.9,0.3,1.3c0,0.1,0.1,0.1,0.2,0.1c0.7,0,1.3,0,2,0s1.4,0,2.2,0c0.1,0,0.2,0.1,0.3,0.2c0.2,0.8,0.5,1.6,0.7,2.5
	c0.1,0.4,0.2,0.8,0.3,1.2c0,0.2,0.1,0.2,0.3,0.1c0.9-0.2,1.8-0.4,2.7-0.7c0.2-0.1,0.3-0.1,0.5-0.1c0.1,0,0.1-0.1,0.1-0.2
	c-0.2-0.5-0.3-1-0.5-1.5c-0.3-0.5-0.5-1-0.7-1.6s-0.4-1.3-0.7-1.9c-0.4-0.9-0.7-1.8-1-2.7C25,3.2,25,3.2,24.8,3.3
	c-0.3,0.2-0.7,0.4-1,0.5c-0.5,0.3-1,0.6-1.5,0.9c-0.6,0.3-1.3,0.6-1.9,1c-0.6,0.3-1.2,0.6-1.8,0.9C18.5,6.6,18.4,6.6,18.4,6.7z
	 M29.2,5.6c-0.7,0-1.3,0.2-1.9,0.5c-0.1,0-0.1,0.1-0.1,0.2c0.1,0.2,0.2,0.5,0.3,0.7c0.1,0.3,0.3,0.7,0.4,1c0.2,0.5,0.4,0.9,0.6,1.4
	c0.2,0.4,0.4,0.7,0.5,1.1c0,0.1,0.1,0.1,0.1,0.1c0.1,0,0.3-0.1,0.4-0.1c0.4-0.2,0.8-0.4,1.3-0.6c0.5-0.2,0.9-0.3,1.4-0.5
	C32.6,9.1,33,9,33.3,8.8c0.3-0.1,0.3-0.1,0.2-0.4C33.3,8,33,7.6,32.7,7.2c-0.4-0.5-0.8-0.8-1.3-1.1C30.8,5.7,30,5.5,29.2,5.6z
	 M20.3,33.8c0,0.2,0.1,0.5,0.2,0.8c0.3,0.7,0.8,1.1,1.5,1.3c0.5,0.1,0.9,0,1.4-0.2c1.1-0.5,1.3-1.7,1.1-2.6c-0.1-0.4-0.3-0.7-0.6-1
	c-0.3-0.3-0.8-0.5-1.2-0.5c-0.7,0-1.3,0.2-1.8,0.7C20.5,32.8,20.3,33.2,20.3,33.8z M36.5,30.8c0-0.2,0-0.4-0.1-0.6
	c-0.2-1-1.2-1.7-2.2-1.5c-0.8,0.1-1.5,0.5-1.8,1.3s-0.1,1.9,0.6,2.5c0.8,0.7,2,0.6,2.7-0.1C36.2,32,36.5,31.5,36.5,30.8z"/>
<path fill="#3AA1F2" d="M0.4,20.8c0-0.7,0-1.4,0-2.1c0-0.2,0.1-0.3,0.3-0.4c0.5-0.3,1-0.6,1.4-0.9s0.8-0.5,1.2-0.8
	c0.7-0.5,1.4-0.9,2.1-1.4c0.4-0.3,0.7-0.5,1.1-0.7c0.6-0.4,1.1-0.7,1.7-1.1c0.5-0.3,0.9-0.7,1.4-1c0,0,0.1-0.1,0.2,0
	c0.1,0,0,0.1,0,0.2c-0.3,1-0.7,1.9-1,2.9c0,0.1,0,0.2,0,0.3c0.4,0.6,0.8,1.2,1.2,1.8c0.5,0.7,0.9,1.3,1.4,2c0.4,0.5,0.7,1.1,1.1,1.6
	c0.6,0.9,1.2,1.8,1.8,2.6c0.2,0.3,0.5,0.6,0.6,0.9c0.4,0.7,0.9,1.3,1.3,2c0.3,0.5,0.7,0.9,1,1.4c0.4,0.6,0.8,1.1,1.1,1.7
	c0.1,0.2,0.2,0.2,0.4,0.1c0.5-0.3,1.1-0.5,1.7-0.7c0.5-0.2,1-0.4,1.4-0.6c0.4-0.1,0.7-0.3,1.1-0.5c0.3-0.2,0.7-0.3,1-0.4
	s0.7-0.3,1-0.4c0.9-0.4,1.8-0.7,2.7-1c0.4-0.1,0.7-0.3,1.1-0.5c0.5-0.2,1-0.4,1.5-0.6c0.3-0.1,0.5-0.2,0.7-0.3
	c0.2-0.1,0.4-0.2,0.7-0.3c0.7-0.3,1.5-0.5,2.2-0.9c0.6-0.3,1.2-0.5,1.7-0.7c0.4-0.2,0.8-0.3,1.2-0.5s0.8-0.4,1.2-0.6
	c0.5-0.2,1-0.4,1.5-0.6h0.1c0.1,0.1,0,0.1,0,0.2c-0.1,0.4-0.3,0.8-0.4,1.2c-0.3,0.9-0.6,1.7-0.9,2.5c-0.2,0.5-0.4,1-0.6,1.6
	c0,0.1-0.1,0.2-0.3,0.2c-1.2,0.4-2.5,0.6-3.7,0.9c-0.5,0.1-1,0.2-1.4,0.4c-1.5,0.4-3.1,0.8-4.6,1.2c-0.7,0.2-1.5,0.4-2.2,0.6
	c-0.9,0.2-1.9,0.4-2.8,0.7c-1,0.3-1.9,0.5-2.9,0.8c-0.6,0.1-1.1,0.2-1.7,0.4c-1.4,0.4-2.8,0.7-4.2,1c-0.1,0-0.1,0-0.2,0
	c-0.1,0-0.2,0-0.1-0.1c0.2-0.5,0.3-1.1,0.4-1.6c0.2-0.7,0.4-1.4,0.6-2.2c0.1-0.2,0-0.3-0.1-0.4c-0.5-0.6-0.9-1.2-1.4-1.7
	c-0.5-0.6-1-1.2-1.5-1.9c-0.4-0.6-0.9-1.1-1.3-1.7c-0.2-0.3-0.5-0.6-0.8-0.9c-0.3-0.4-0.7-0.9-1-1.3c-0.3-0.5-0.7-0.9-1.1-1.3
	c-0.1-0.1-0.2-0.2-0.3-0.1C7.2,20,7,20,6.9,20.1c-0.6,0.2-1.2,0.3-1.7,0.5c-0.7,0.2-1.4,0.3-2.1,0.5c-0.3,0.1-0.6,0.1-0.9,0.2
	c-0.5,0.2-1.1,0.3-1.6,0.4c-0.2,0-0.2,0-0.2-0.2C0.4,21.2,0.4,21,0.4,20.8L0.4,20.8z"/>
<path fill="#26285E" d="M35.5,9.7c-0.2,1.4-0.3,2.9-0.5,4.3c-0.1,1.2-0.2,2.3-0.3,3.5c-0.1,1.1-0.2,2.1-0.3,3.2
	c0,0.2-0.1,0.2-0.2,0.3c-0.8,0.3-1.7,0.6-2.5,1c-0.5,0.3-0.8,0.1-1.2-0.1c-0.3-0.2-0.7-0.3-1-0.5c-0.5-0.3-1.1-0.5-1.6-0.8
	c-0.2-0.1-0.4,0-0.6,0.1c-0.5,0.2-1,0.4-1.5,0.6c-0.4,0.2-0.8,0.3-1.2,0.5c-0.1,0.1-0.2,0.2-0.2,0.3c-0.2,0.9-0.5,1.9-0.8,2.8
	c0,0.1-0.1,0.2-0.1,0.3c0,0.3-0.2,0.4-0.4,0.5c-0.4,0.2-0.9,0.3-1.3,0.5c-0.7,0.3-1.4,0.6-2.1,0.8c-0.1,0-0.1,0-0.2-0.1
	c-0.2-0.2-0.3-0.4-0.5-0.6c-0.3-0.4-0.6-0.8-0.9-1.2c-0.6-0.9-1.3-1.7-1.9-2.5c-0.5-0.7-1-1.3-1.5-2c-0.4-0.5-0.8-1.1-1.2-1.7
	c-0.1-0.1-0.2-0.3-0.3-0.5c-0.1-0.1,0-0.1,0.1-0.2c0.5-0.1,1-0.3,1.4-0.5s0.7-0.3,1.1-0.5c0.6-0.3,1.3-0.5,1.9-0.8
	c0.3-0.2,0.7-0.3,1-0.5c0.3-0.1,0.6-0.2,0.8-0.3c0.4-0.1,0.8-0.3,1.2-0.5c0.3-0.1,0.7-0.3,1-0.4c0.4-0.1,0.7-0.3,1.1-0.4
	c0.3-0.1,0.7-0.2,1-0.4c0.7-0.3,1.4-0.5,2.1-0.8c0.4-0.2,0.8-0.3,1.2-0.5c0.5-0.2,1-0.4,1.6-0.6c0.7-0.3,1.3-0.5,1.9-0.8
	c0.8-0.3,1.6-0.6,2.3-0.9c0.7-0.3,1.4-0.6,2.1-0.9C35.5,9.4,35.5,9.5,35.5,9.7z M22.9,20.3c-0.1-0.5-0.3-0.9-0.5-1.3
	c0-0.1-0.1,0-0.2,0c-0.4,0.1-0.8,0.4-1.2,0.5c-0.3,0.1-0.3,0.1-0.3-0.2c-0.1-0.5-0.3-0.9-0.5-1.3c0-0.1-0.1-0.1-0.2-0.1
	c-0.4,0.1-0.7,0.3-1.1,0.4c-0.1,0-0.1,0.1-0.1,0.2c0.2,0.5,0.3,0.9,0.5,1.4c0.1,0.2,0.1,0.3-0.2,0.4c-0.4,0.2-0.8,0.3-1.2,0.5
	c-0.1,0-0.2,0.1-0.1,0.2c0.2,0.4,0.3,0.8,0.5,1.2c0,0.1,0.1,0.1,0.1,0.1c0.4-0.2,0.8-0.3,1.2-0.5c0.3-0.1,0.3-0.1,0.5,0.2
	c0.1,0.4,0.3,0.8,0.4,1.2c0.1,0.1,0.1,0.2,0.3,0.1c0.3-0.1,0.7-0.3,1-0.4c0.1,0,0.2-0.1,0.1-0.2c-0.2-0.5-0.3-0.9-0.5-1.4
	c-0.1-0.2,0-0.2,0.1-0.3c0.4-0.2,0.9-0.3,1.3-0.5C22.8,20.4,22.9,20.4,22.9,20.3z M32.8,16.9c0.6,0,0.9-0.4,0.9-0.9
	c0-0.4-0.3-0.9-0.9-0.9c-0.6,0-0.9,0.5-0.9,0.9C31.9,16.5,32.3,16.9,32.8,16.9z M30.1,13.7c-0.5-0.1-0.9,0.5-0.9,0.9
	c0,0.5,0.4,0.9,0.9,0.9c0.6,0,0.9-0.4,0.9-0.9C31,14.2,30.7,13.7,30.1,13.7z M32.4,18.3c0-0.5-0.4-1-0.8-1c-0.6,0-0.9,0.4-0.9,0.9
	s0.3,0.9,0.9,0.9C31.9,19.2,32.4,18.8,32.4,18.3z M28.1,17.4c0,0.6,0.4,0.9,0.9,0.9s0.9-0.4,0.9-0.9s-0.4-0.9-0.9-0.9
	S28.1,16.9,28.1,17.4z"/>
<path fill="#486DBE" d="M15,9.7c1.1,0,2.2,0,3.4,0c0.6,0,1.2,0,1.9,0c0.5,0,0.9,0,1.4,0c0.1,0,0.2,0,0.2,0.2
	c0.3,1.2,0.6,2.5,0.9,3.7c0,0.1,0,0.2-0.1,0.2c-0.2,0.1-0.4,0.1-0.6,0.2c-0.4,0.2-0.9,0.4-1.3,0.5c-0.4,0.2-0.8,0.3-1.2,0.4
	c-0.3,0.1-0.6,0.2-0.9,0.4c-0.5,0.2-1,0.4-1.5,0.6c-0.5,0.2-1.1,0.4-1.6,0.6c-0.1,0.1-0.2,0-0.2-0.1c-0.1-0.6-0.3-1.2-0.4-1.8
	c-0.1-0.5-0.2-1-0.3-1.5c-0.2-0.7-0.3-1.4-0.5-2.1c-0.1-0.4-0.2-0.8-0.2-1.1c0-0.1,0-0.2,0.2-0.2C14.3,9.8,14.7,9.8,15,9.7L15,9.7z"
	/>
<path fill="#F79C19" d="M18.4,6.7c0-0.1,0.1-0.1,0.1-0.2c0.6-0.3,1.2-0.6,1.8-0.9c0.6-0.4,1.2-0.7,1.9-1c0.5-0.3,1-0.6,1.5-0.9
	c0.3-0.2,0.7-0.3,1-0.5c0.1-0.1,0.2,0,0.3,0.1c0.4,0.9,0.7,1.8,1,2.7c0.3,0.6,0.5,1.3,0.7,1.9s0.4,1.1,0.6,1.7
	c0.2,0.5,0.4,1,0.5,1.5c0,0.1,0,0.2-0.1,0.2c-0.2,0-0.3,0.1-0.5,0.1c-0.9,0.3-1.8,0.5-2.7,0.7c-0.1,0-0.2,0-0.3-0.1
	c-0.1-0.4-0.2-0.8-0.3-1.2c-0.2-0.8-0.5-1.6-0.7-2.5c0-0.1-0.1-0.2-0.3-0.2c-0.7,0-1.4,0-2.2,0c-0.7,0-1.3,0-2,0
	c-0.1,0-0.2,0-0.2-0.1c-0.1-0.4-0.2-0.8-0.3-1.2C18.4,6.8,18.4,6.8,18.4,6.7z"/>
<path fill="#3AA1F2" d="M29.2,5.6c0.8,0,1.5,0.2,2.2,0.5c0.5,0.3,0.9,0.6,1.3,1.1C33,7.6,33.3,8,33.5,8.5c0.1,0.2,0.1,0.3-0.2,0.4
	c-0.3,0.1-0.7,0.2-1,0.4c-0.5,0.2-0.9,0.3-1.4,0.5c-0.4,0.2-0.9,0.3-1.3,0.6c-0.1,0.1-0.3,0.1-0.4,0.1s-0.1,0-0.1-0.1
	c-0.1-0.4-0.3-0.7-0.5-1C28.4,8.9,28.2,8.5,28,8c-0.1-0.3-0.3-0.7-0.4-1c-0.1-0.2-0.2-0.5-0.3-0.7c0-0.1,0-0.1,0.1-0.2
	C27.9,5.7,28.6,5.6,29.2,5.6z"/>
<path fill="#3AA1F2" d="M20.3,33.8c0-0.6,0.2-1.1,0.5-1.5c0.5-0.6,1.1-0.8,1.8-0.7c0.5,0,0.9,0.2,1.2,0.5c0.3,0.3,0.5,0.6,0.6,1
	c0.2,0.9,0,2.1-1.1,2.6C22.9,36,22.4,36.1,22,36c-0.7-0.2-1.3-0.6-1.5-1.3C20.3,34.3,20.3,34.1,20.3,33.8z"/>
<path fill="#3AA1F2" d="M36.5,30.8c0,0.7-0.2,1.2-0.7,1.7c-0.7,0.6-1.9,0.7-2.7,0.1c-0.7-0.6-0.9-1.7-0.6-2.5
	c0.3-0.8,0.9-1.2,1.8-1.3c1-0.1,1.9,0.6,2.2,1.5C36.4,30.4,36.5,30.6,36.5,30.8z"/>
<path fill="#486DBE" d="M22.9,20.3c0,0.1-0.1,0.1-0.1,0.2c-0.4,0.2-0.8,0.3-1.3,0.5c-0.1,0.1-0.2,0.1-0.1,0.3
	c0.2,0.5,0.3,0.9,0.5,1.4c0.1,0.1,0,0.2-0.1,0.2c-0.3,0.1-0.7,0.2-1,0.4c-0.2,0.1-0.2,0-0.3-0.1c-0.1-0.4-0.3-0.8-0.4-1.2
	c-0.1-0.3-0.1-0.3-0.5-0.2c-0.4,0.2-0.8,0.3-1.2,0.5c-0.1,0-0.1,0-0.1-0.1c-0.2-0.4-0.3-0.8-0.5-1.2c0-0.1,0-0.1,0.1-0.2
	c0.4-0.2,0.8-0.3,1.2-0.5c0.2-0.1,0.3-0.1,0.2-0.4c-0.2-0.5-0.3-0.9-0.5-1.4c0-0.1,0-0.2,0.1-0.2c0.4-0.1,0.7-0.3,1.1-0.4
	c0.1,0,0.1,0,0.2,0.1c0.2,0.4,0.4,0.9,0.5,1.3c0.1,0.3,0.1,0.3,0.3,0.2c0.4-0.1,0.8-0.4,1.2-0.5c0.1,0,0.2-0.1,0.2,0
	C22.6,19.4,22.8,19.9,22.9,20.3z"/>
<path fill="#3AA1F2" d="M32.8,16.9c-0.5,0-0.9-0.4-0.9-1c0-0.4,0.3-0.9,0.9-0.9c0.5,0,0.9,0.5,0.9,0.9
	C33.7,16.5,33.3,16.9,32.8,16.9z"/>
<path fill="#F79C19" d="M30.1,13.7c0.6,0,0.9,0.5,0.9,0.9c0,0.5-0.3,0.9-0.9,0.9c-0.5,0-0.9-0.4-0.9-0.9
	C29.3,14.2,29.6,13.7,30.1,13.7z"/>
<path fill="#74C32C" d="M32.4,18.3c0,0.5-0.4,0.9-0.9,0.9c-0.5,0-0.9-0.5-0.9-0.9c0-0.5,0.3-0.9,0.9-0.9
	C32,17.3,32.4,17.8,32.4,18.3z"/>
<path fill="#486DBE" d="M28.1,17.4c0-0.5,0.4-0.9,0.9-0.9s0.9,0.4,0.9,0.9s-0.4,0.9-0.9,0.9C28.4,18.3,28.1,18,28.1,17.4z"/>
</svg>
