<?xml version="1.0" encoding="utf-8"?>
<!-- Generator: Adobe Illustrator 21.1.0, SVG Export Plug-In . SVG Version: 6.00 Build 0)  -->
<svg version="1.1" id="Capa_1" xmlns="http://www.w3.org/2000/svg" xmlns:xlink="http://www.w3.org/1999/xlink" x="0px" y="0px"
	 viewBox="0 0 40 40" style="enable-background:new 0 0 40 40;" xml:space="preserve">
<style type="text/css">
	.st0{fill:#FFA400;}
</style>
<path class="st0" d="M38.3,13.6c-3.3-4-10.1-6.4-18.3-6.4l0,0l0,0l0,0c-8,0-14.9,2.4-18.3,6.4c-1.3,1.6-1.9,3.5-1.5,5.3
	c0.3,1.6,1.3,3.1,2.7,3.7c0.8,0.4,1.7,0.5,2.5,0.5c0.4,0,0.9,0,1.3-0.1c-0.3,0.8-0.4,1.6-0.5,2.5C6,28,6.4,29.7,7.6,31.1
	c1.3,1.6,3.5,1.7,4.3,1.7c0.3,0,0.4,0,0.4,0h15.6c1.7,0,3.3-0.7,4.3-1.9c1.3-1.6,1.6-3.9,1.5-5.3c-0.1-0.8-0.3-1.7-0.5-2.5
	c0.4,0.1,0.9,0.1,1.5,0.1c0.8,0,1.7-0.1,2.5-0.5c1.3-0.7,2.4-2.1,2.7-3.7C40,17.1,39.6,15.1,38.3,13.6z M30.7,29.6
	c-0.7,0.8-1.6,1.2-2.8,1.2H12.1c-0.1,0-2,0.1-3.1-1.1c-0.7-0.8-0.9-2.1-0.8-3.9c0.7-5.3,4.3-8.5,4.9-9.1c1.9-1.5,4.4-2.4,6.9-2.4
	s4.8,0.8,6.5,2.4c2.5,2.1,4.4,5.7,4.9,9.1C31.7,26.9,31.6,28.5,30.7,29.6z M37.7,18.5c-0.3,1.1-0.8,2-1.7,2.4
	c-1.5,0.8-3.5,0.1-4-0.1c-0.9-2.1-2.4-4-4.1-5.5c-2.1-1.9-4.9-2.8-7.9-2.8s-5.9,1.1-8.1,2.8c-0.5,0.4-2.8,2.4-4.3,5.6
	c-0.7,0.3-2.4,0.8-3.7,0c-0.8-0.4-1.5-1.3-1.7-2.4c-0.3-1.2,0.1-2.5,1.1-3.6c3.1-3.6,9.3-5.7,16.8-5.7s13.7,2.1,16.7,5.7
	C37.6,16,38,17.2,37.7,18.5z M20,16.5c-2.9,0-5.5,2.1-5.5,4.7s2.4,4.7,5.5,4.7c2.9,0,5.5-2.1,5.5-4.7S22.9,16.5,20,16.5z M20,23.9
	c-1.9,0-3.5-1.2-3.5-2.7s1.5-2.7,3.5-2.7c1.9,0,3.5,1.2,3.5,2.7S21.9,23.9,20,23.9z"/>
</svg>
